<svg xmlns="http://www.w3.org/2000/svg" xmlns:xlink="http://www.w3.org/1999/xlink" width="1500" zoomAndPan="magnify" viewBox="0 0 1125 374.999991" height="500" preserveAspectRatio="xMidYMid meet" version="1.0"><defs><g/><clipPath id="fbf6a24442"><path d="M 225 131 L 302.351562 131 L 302.351562 298 L 225 298 Z M 225 131 " clip-rule="nonzero"/></clipPath><clipPath id="1b75667e71"><path d="M 54.101562 131 L 264 131 L 264 304.464844 L 54.101562 304.464844 Z M 54.101562 131 " clip-rule="nonzero"/></clipPath><clipPath id="76da07ad82"><path d="M 137 70.464844 L 219 70.464844 L 219 151 L 137 151 Z M 137 70.464844 " clip-rule="nonzero"/></clipPath></defs><rect x="-112.5" width="1350" fill="#ffffff" y="-37.499999" height="449.999989" fill-opacity="1"/><rect x="-112.5" width="1350" fill="#ffffff" y="-37.499999" height="449.999989" fill-opacity="1"/><rect x="-112.5" width="1350" fill="#f8f7f4" y="-37.499999" height="449.999989" fill-opacity="1"/><g clip-path="url(#fbf6a24442)"><path fill="#bd9479" d="M 263.46875 297.488281 L 302.351562 285.703125 L 269.855469 148.691406 L 252.421875 131.253906 L 225.246094 243.644531 L 263.46875 297.488281 " fill-opacity="1" fill-rule="nonzero"/></g><g clip-path="url(#1b75667e71)"><path fill="#bd9479" d="M 146.125 222.167969 C 124.339844 237.304688 95.386719 247.789062 66.554688 254 L 61.367188 271.125 C 66.316406 270.109375 71.308594 268.964844 76.324219 267.695312 C 122.273438 256.054688 161.015625 236.140625 184.910156 214.164062 L 169.769531 198.65625 C 202.261719 195.355469 233.921875 180.703125 233.921875 180.703125 C 233.921875 180.703125 226.347656 217.226562 211.613281 248.238281 L 201.792969 231.449219 C 174.378906 255.191406 131.828125 276.496094 81.769531 289.179688 C 72.4375 291.546875 63.195312 293.523438 54.097656 295.121094 C 54.097656 295.121094 130.921875 301.734375 202.089844 265.09375 C 185.503906 280.960938 163.0625 294.222656 139.488281 304.390625 L 263.46875 297.488281 L 252.421875 131.253906 L 213.515625 131.253906 L 213.515625 150.910156 L 205.949219 150.910156 L 205.949219 131.253906 L 140.011719 131.253906 L 140.011719 150.910156 L 132.445312 150.910156 L 132.445312 131.253906 L 103.734375 131.253906 L 71.101562 238.992188 C 98.328125 235.707031 123.726562 229.871094 146.125 222.167969 " fill-opacity="1" fill-rule="nonzero"/></g><g clip-path="url(#76da07ad82)"><path fill="#bd9479" d="M 145.109375 150.910156 L 145.109375 111.039062 C 145.109375 92.832031 159.871094 78.066406 178.078125 78.066406 C 196.285156 78.066406 211.046875 92.832031 211.046875 111.039062 L 211.046875 150.910156 L 218.613281 150.910156 L 218.613281 111.039062 C 218.613281 88.683594 200.429688 70.5 178.078125 70.5 C 155.726562 70.5 137.542969 88.683594 137.542969 111.039062 L 137.542969 150.910156 L 145.109375 150.910156 " fill-opacity="1" fill-rule="nonzero"/></g><g fill="#5b4f47" fill-opacity="1"><g transform="translate(357.68966, 282.496096)"><g><path d="M 9.578125 -89.71875 L 31.4375 -89.71875 L 31.4375 -16.609375 L 58.65625 -16.609375 L 58.65625 0 L 9.578125 0 Z M 9.578125 -89.71875 "/></g></g></g><g fill="#5b4f47" fill-opacity="1"><g transform="translate(415.705681, 282.496096)"><g><path d="M 29.515625 -79.359375 C 27.046875 -76.890625 24.019531 -75.65625 20.4375 -75.65625 C 16.863281 -75.65625 13.84375 -76.890625 11.375 -79.359375 C 8.90625 -81.828125 7.671875 -84.875 7.671875 -88.5 C 7.671875 -92.125 8.90625 -95.171875 11.375 -97.640625 C 13.84375 -100.109375 16.863281 -101.34375 20.4375 -101.34375 C 24.019531 -101.34375 27.046875 -100.109375 29.515625 -97.640625 C 31.992188 -95.171875 33.234375 -92.125 33.234375 -88.5 C 33.234375 -84.875 31.992188 -81.828125 29.515625 -79.359375 Z M 9.578125 0 L 9.578125 -71.3125 L 31.4375 -71.3125 L 31.4375 0 Z M 9.578125 0 "/></g></g></g><g fill="#5b4f47" fill-opacity="1"><g transform="translate(453.531041, 282.496096)"><g><path d="M 0.515625 -71.3125 L 23.765625 -71.3125 L 40 -18.28125 L 56.234375 -71.3125 L 79.484375 -71.3125 L 54.1875 0 L 25.8125 0 Z M 0.515625 -71.3125 "/></g></g></g><g fill="#5b4f47" fill-opacity="1"><g transform="translate(530.332035, 282.496096)"><g><path d="M 39.875 0.890625 C 29.476562 0.890625 20.957031 -2.453125 14.3125 -9.140625 C 7.664062 -15.828125 4.34375 -24.707031 4.34375 -35.78125 C 4.34375 -46.851562 7.644531 -55.671875 14.25 -62.234375 C 20.851562 -68.796875 29.394531 -72.078125 39.875 -72.078125 C 50.351562 -72.078125 59.039062 -68.835938 65.9375 -62.359375 C 72.84375 -55.890625 76.296875 -46.90625 76.296875 -35.40625 C 76.296875 -32.925781 76.125 -30.625 75.78125 -28.5 L 26.703125 -28.5 C 27.128906 -25.34375 28.535156 -22.765625 30.921875 -20.765625 C 33.304688 -18.765625 35.882812 -17.765625 38.65625 -17.765625 C 41.425781 -17.765625 43.492188 -18.039062 44.859375 -18.59375 C 46.222656 -19.144531 47.222656 -19.695312 47.859375 -20.25 C 48.492188 -20.8125 49.328125 -21.726562 50.359375 -23 L 74 -23 C 71.945312 -15.84375 67.851562 -10.070312 61.71875 -5.6875 C 55.59375 -1.300781 48.3125 0.890625 39.875 0.890625 Z M 53.546875 -42.171875 C 53.203125 -45.492188 51.753906 -48.195312 49.203125 -50.28125 C 46.648438 -52.375 43.625 -53.421875 40.125 -53.421875 C 36.632812 -53.421875 33.695312 -52.375 31.3125 -50.28125 C 28.925781 -48.195312 27.4375 -45.492188 26.84375 -42.171875 Z M 53.546875 -42.171875 "/></g></g></g><g fill="#5b4f47" fill-opacity="1"><g transform="translate(607.899738, 282.496096)"><g/></g></g><g fill="#5b4f47" fill-opacity="1"><g transform="translate(643.041542, 282.496096)"><g><path d="M 40 -73.734375 C 37.269531 -73.734375 35.03125 -73.007812 33.28125 -71.5625 C 31.539062 -70.113281 30.671875 -68.023438 30.671875 -65.296875 C 30.671875 -62.578125 31.476562 -60.382812 33.09375 -58.71875 C 34.71875 -57.0625 36.828125 -55.785156 39.421875 -54.890625 C 42.023438 -53.992188 44.921875 -53.140625 48.109375 -52.328125 C 51.304688 -51.523438 54.476562 -50.546875 57.625 -49.390625 C 60.78125 -48.242188 63.65625 -46.816406 66.25 -45.109375 C 68.851562 -43.410156 70.960938 -41.003906 72.578125 -37.890625 C 74.203125 -34.785156 75.015625 -31.054688 75.015625 -26.703125 C 75.015625 -19.117188 71.925781 -12.625 65.75 -7.21875 C 59.570312 -1.8125 51.4375 0.890625 41.34375 0.890625 C 31.25 0.890625 23.113281 -1.535156 16.9375 -6.390625 C 10.757812 -11.242188 7.671875 -18.144531 7.671875 -27.09375 L 30.921875 -27.09375 C 31.523438 -19.9375 35.191406 -16.359375 41.921875 -16.359375 C 45.066406 -16.359375 47.535156 -17.1875 49.328125 -18.84375 C 51.117188 -20.507812 52.015625 -22.617188 52.015625 -25.171875 C 52.015625 -27.734375 51.203125 -29.820312 49.578125 -31.4375 C 47.960938 -33.050781 45.851562 -34.328125 43.25 -35.265625 C 40.65625 -36.203125 37.757812 -37.078125 34.5625 -37.890625 C 31.375 -38.703125 28.203125 -39.703125 25.046875 -40.890625 C 21.890625 -42.085938 19.015625 -43.515625 16.421875 -45.171875 C 13.828125 -46.835938 11.71875 -49.222656 10.09375 -52.328125 C 8.476562 -55.441406 7.671875 -59.128906 7.671875 -63.390625 C 7.671875 -71.734375 10.78125 -78.414062 17 -83.4375 C 23.21875 -88.46875 31.160156 -90.984375 40.828125 -90.984375 C 50.503906 -90.984375 58.320312 -88.789062 64.28125 -84.40625 C 70.25 -80.019531 73.359375 -73.097656 73.609375 -63.640625 L 49.84375 -63.640625 C 49.5 -66.878906 48.453125 -69.367188 46.703125 -71.109375 C 44.960938 -72.859375 42.726562 -73.734375 40 -73.734375 Z M 40 -73.734375 "/></g></g></g><g fill="#5b4f47" fill-opacity="1"><g transform="translate(722.526104, 282.496096)"><g><path d="M 39.875 0.890625 C 29.476562 0.890625 20.957031 -2.453125 14.3125 -9.140625 C 7.664062 -15.828125 4.34375 -24.707031 4.34375 -35.78125 C 4.34375 -46.851562 7.644531 -55.671875 14.25 -62.234375 C 20.851562 -68.796875 29.394531 -72.078125 39.875 -72.078125 C 50.351562 -72.078125 59.039062 -68.835938 65.9375 -62.359375 C 72.84375 -55.890625 76.296875 -46.90625 76.296875 -35.40625 C 76.296875 -32.925781 76.125 -30.625 75.78125 -28.5 L 26.703125 -28.5 C 27.128906 -25.34375 28.535156 -22.765625 30.921875 -20.765625 C 33.304688 -18.765625 35.882812 -17.765625 38.65625 -17.765625 C 41.425781 -17.765625 43.492188 -18.039062 44.859375 -18.59375 C 46.222656 -19.144531 47.222656 -19.695312 47.859375 -20.25 C 48.492188 -20.8125 49.328125 -21.726562 50.359375 -23 L 74 -23 C 71.945312 -15.84375 67.851562 -10.070312 61.71875 -5.6875 C 55.59375 -1.300781 48.3125 0.890625 39.875 0.890625 Z M 53.546875 -42.171875 C 53.203125 -45.492188 51.753906 -48.195312 49.203125 -50.28125 C 46.648438 -52.375 43.625 -53.421875 40.125 -53.421875 C 36.632812 -53.421875 33.695312 -52.375 31.3125 -50.28125 C 28.925781 -48.195312 27.4375 -45.492188 26.84375 -42.171875 Z M 53.546875 -42.171875 "/></g></g></g><g fill="#5b4f47" fill-opacity="1"><g transform="translate(800.093806, 282.496096)"><g><path d="M 9.578125 0 L 9.578125 -94.5625 L 31.4375 -94.5625 L 31.4375 0 Z M 9.578125 0 "/></g></g></g><g fill="#5b4f47" fill-opacity="1"><g transform="translate(837.919156, 282.496096)"><g><path d="M 9.578125 0 L 9.578125 -94.5625 L 31.4375 -94.5625 L 31.4375 0 Z M 9.578125 0 "/></g></g></g><g fill="#5b4f47" fill-opacity="1"><g transform="translate(875.744505, 282.496096)"><g/></g></g><g fill="#5b4f47" fill-opacity="1"><g transform="translate(910.886289, 282.496096)"><g><path d="M 9.578125 0 L 9.578125 -89.71875 L 31.4375 -89.71875 L 31.4375 0 Z M 9.578125 0 "/></g></g></g><g fill="#5b4f47" fill-opacity="1"><g transform="translate(948.711638, 282.496096)"><g><path d="M 39.875 -18.53125 L 47.671875 -18.53125 L 47.671875 0 L 36.546875 0 C 28.535156 0 22.335938 -1.765625 17.953125 -5.296875 C 13.566406 -8.835938 11.375 -14.910156 11.375 -23.515625 L 11.375 -53.15625 L 4.734375 -53.15625 L 4.734375 -71.3125 L 11.375 -71.3125 L 11.375 -88.6875 L 33.234375 -88.6875 L 33.234375 -71.3125 L 47.546875 -71.3125 L 47.546875 -53.15625 L 33.234375 -53.15625 L 33.234375 -23.515625 C 33.234375 -20.191406 35.445312 -18.53125 39.875 -18.53125 Z M 39.875 -18.53125 "/></g></g></g><g fill="#5b4f47" fill-opacity="1"><g transform="translate(998.549158, 282.496096)"><g><path d="M 40.765625 -11.953125 C 40.765625 -8.585938 39.613281 -5.753906 37.3125 -3.453125 C 35.007812 -1.148438 32.175781 0 28.8125 0 C 25.445312 0 22.613281 -1.148438 20.3125 -3.453125 C 18.019531 -5.753906 16.875 -8.585938 16.875 -11.953125 C 16.875 -15.316406 18.019531 -18.144531 20.3125 -20.4375 C 22.613281 -22.738281 25.445312 -23.890625 28.8125 -23.890625 C 32.175781 -23.890625 35.007812 -22.738281 37.3125 -20.4375 C 39.613281 -18.144531 40.765625 -15.316406 40.765625 -11.953125 Z M 19.046875 -32.203125 L 16.484375 -96.109375 L 40.125 -96.109375 L 37.578125 -32.203125 Z M 19.046875 -32.203125 "/></g></g></g></svg>